<svg xmlns="http://www.w3.org/2000/svg" width="128" height="128" viewBox="0 0 128 128" fill="none">
  <defs>
    <linearGradient id="bg" x1="20" y1="10" x2="108" y2="118" gradientUnits="userSpaceOnUse">
      <stop stop-color="#151515"/>
      <stop offset="1" stop-color="#2A2A2A"/>
    </linearGradient>
    <linearGradient id="accent" x1="34" y1="54" x2="90" y2="76" gradientUnits="userSpaceOnUse">
      <stop stop-color="#00A84D"/>
      <stop offset="1" stop-color="#00D46A"/>
    </linearGradient>
    <filter id="glow" x="10" y="16" width="108" height="96" filterUnits="userSpaceOnUse" color-interpolation-filters="sRGB">
      <feGaussianBlur stdDeviation="10"/>
    </filter>
  </defs>

  <rect width="128" height="128" rx="24" fill="url(#bg)"/>
  <rect x="1.5" y="1.5" width="125" height="125" rx="22.5" stroke="#3A3A3A"/>

  <ellipse cx="66" cy="64" rx="34" ry="26" fill="#00B050" fill-opacity="0.18" filter="url(#glow)"/>

  <rect x="18" y="24" width="92" height="80" rx="16" fill="#232526" stroke="#45484B" stroke-width="2"/>

  <rect x="29" y="35" width="38" height="18" rx="8" fill="#373A3D"/>
  <rect x="64" y="40" width="10" height="8" rx="4" fill="#373A3D"/>
  <path d="M38 44H51" stroke="#D8D8D8" stroke-width="4" stroke-linecap="round"/>
  <circle cx="58" cy="44" r="2.5" fill="#8C9399"/>

  <rect x="29" y="56" width="54" height="20" rx="9" fill="url(#accent)"/>
  <rect x="79" y="62" width="11" height="8" rx="4" fill="#00BA58"/>
  <path d="M38 66H55" stroke="#F7FFF9" stroke-width="4.5" stroke-linecap="round"/>
  <circle cx="65" cy="66" r="3" fill="#F7FFF9"/>

  <rect x="29" y="80" width="46" height="16" rx="8" fill="#303336"/>
  <rect x="72" y="84" width="10" height="8" rx="4" fill="#303336"/>
  <path d="M38 88H52" stroke="#CACFD4" stroke-width="4" stroke-linecap="round"/>

  <rect x="88" y="33" width="14" height="54" rx="7" fill="#141516" stroke="#4A4A4A" stroke-width="1.5"/>
  <circle cx="95" cy="44" r="4" fill="#737A80"/>
  <circle cx="95" cy="66" r="4.5" fill="#00D46A"/>
  <circle cx="95" cy="78" r="4" fill="#737A80"/>

  <path d="M25 24C31 18 39 14 49 14H79C91 14 99 18 105 24" stroke="#00B050" stroke-opacity="0.55" stroke-width="3" stroke-linecap="round"/>
</svg>